# xmcd
#
# Track frame offsets: 
#        150
#        15303
#        32180
#        50859
#        66538
#        93387
#        108315
#        123997
#        141172
#        162548
#        186098
#        203577
#        218851
#        238633
#        265787
#
# Disc length: 3764 seconds
#
# Revision: 0
# Processed by: cddbd v1.5.2PL0 Copyright (c) Steve Scherf et al.
# Submitted via: ExactAudioCopy v0.99pb4
#
DISCID=db0eb20f
DTITLE=The New Mastersounds - Plug and PLay
DYEAR=2009
DGENRE=Funk
TTITLE0=Hole in the Bag
TTITLE1=I Mean it So
TTITLE2=Thermal Bad
TTITLE3=Looking for an Answer
TTITLE4=Altitude
TTITLE5=Kuna Matata
TTITLE6=Chrysalis
TTITLE7=Beyond the Bleak Horizon
TTITLE8=All We Can Do
TTITLE9=Idris
TTITLE10=King Comforter
TTITLE11=Hole in the Bag (Drawbar Remix)
TTITLE12=All We Can Do (JD73 remix)
TTITLE13=Thermal Bad (Live in San Francisco)
TTITLE14=King Uncomforter (Drawbar Remix)
EXTD=
EXTT0=
EXTT1=
EXTT2=
EXTT3=
EXTT4=
EXTT5=
EXTT6=
EXTT7=
EXTT8=
EXTT9=
EXTT10=
EXTT11=
EXTT12=
EXTT13=
EXTT14=
PLAYORDER=
